<svg width="53" height="62" viewBox="0 0 53 62" fill="none" xmlns="http://www.w3.org/2000/svg">
<g id="Group 1000004272">
<path id="Vector" d="M37.9922 42.1945L38.0868 42.138L41.8198 39.9832V22.3666L26.6466 31.1278L26.5 31.0474L22.795 28.9069L22.6723 28.8356L18.8487 26.6029L18.8401 31.0235L15.1305 28.883L15.0928 24.4553L18.8401 22.2959L18.9439 22.2343L22.6723 20.0846L22.795 20.0133L26.5 17.8728L26.6466 17.7878L30.3322 19.9141L30.4931 20.0133L34.1599 22.1305L34.3487 22.2343L37.9922 20.1314L38.1952 20.0133L41.8198 17.9201L45.9523 15.5083L42.0463 13.3412L41.8198 13.2135L38.2003 11.1203L37.9922 11.0022L34.3487 8.89472L34.1599 8.79039L30.4977 6.67375L30.3322 6.57909L26.6466 4.4482L26.5 4.53319L22.795 6.67375L22.6723 6.74449L18.9439 8.89472L18.8401 8.95579L15.0928 11.1203L15.0124 11.1676L11.2463 13.3412L11.1802 13.3789L7.39018 15.5668L7.34795 15.5907L3.54369 17.7878L3.52028 17.802V22.1824V22.244V26.5821V26.6951V30.9904V31.137V35.3947V35.5886V39.7939V40.0306L1.52588e-05 42.0622V15.5103L26.5 0.0205078L53 15.5103V15.9124L49.749 17.7878L49.4797 17.944L45.8979 20.0133L45.6521 20.1553V24.3138V24.5596V28.7649V28.9634V33.2068V33.3676V37.6533V37.7714V42.1004V42.1757L41.9048 44.3402L41.8198 44.3875L38.0914 46.5418L37.9922 46.5988L34.2734 48.744L34.1599 48.8101L30.46 50.9461L30.3322 51.0219L26.6466 53.1482L26.5 53.0632L22.8332 50.9461L22.6723 50.8514L19.0197 48.744L18.8401 48.6401L15.2063 46.5418L18.8401 44.444L19.0197 44.3402L22.6723 46.4477L22.8332 46.5418L26.5 48.659L26.6466 48.744L30.3322 46.6176L30.46 46.5418L34.1599 44.4012V44.274L34.2734 44.3402L37.9922 42.1945Z" fill="white"/>
<path id="Vector_2" d="M3.52028 44.4818L3.76151 44.3403L7.34795 42.2705L7.38204 20.0506L7.39018 20.0134L11.1802 17.8255L15.0124 15.6142L18.8401 13.4029L18.9439 13.3413L22.6723 11.1911L22.795 11.1204L26.5 8.97981L26.6669 8.88159L26.6466 8.89482L30.3322 11.0211L30.4977 11.1204L34.1599 13.2324L34.3487 13.3413L37.9922 15.4442L38.2003 15.5623L37.9922 15.685L34.3487 17.7879L34.1599 17.684L30.4931 15.5669L30.3322 15.4722L26.6466 13.3413L26.5 13.4263L22.795 15.5623L22.6723 15.6331L18.9439 17.7879L18.8401 17.8494L15.0928 20.0134L15.0124 20.0608L11.2463 22.2344L11.1802 22.2726V26.6056V26.7191V31.0048V31.1656V35.4091V35.6076V39.8179L11.199 39.8271L14.9132 37.6865L14.9794 37.6489L15.0124 37.6677L15.1636 37.7578L18.8401 39.8744V31.0236L18.977 31.1091L22.6723 33.24L22.8332 33.3301L26.5 35.4467L26.6466 35.5317L30.3322 33.4054L30.46 33.3301L34.1599 31.1941V35.4656V35.5979V39.8744V40.0022V44.2741L30.46 42.1381L26.5 44.4253L22.8332 42.1381L22.6723 42.0435L19.0197 39.936L18.8401 39.9788L15.2063 42.1381L15.0124 42.2465L11.3878 44.3403L11.1802 44.4584L7.57442 46.5419L11.1802 48.626L11.3878 48.7441L15.0124 50.8378L15.2063 50.9462L18.8401 53.0445L19.0147 53.1483L22.6723 55.2558L22.8332 55.3505L26.5 57.4671L26.6466 57.5526L30.3322 55.4258L30.46 55.3505L34.1599 53.2099L34.2734 53.1483L37.9922 51.0032L38.0868 50.9462L41.8198 48.7914L41.9048 48.7441L45.6521 46.5801L45.7136 46.5419L49.4797 44.3683L49.4253 22.3657L49.7159 22.2156L53 20.3167V46.49L26.5 61.9798L0.018837 46.5012L3.52028 44.4818Z" fill="white"/>
</g>
</svg>
